<?xml version="1.0" standalone="no"?>
<!DOCTYPE svg PUBLIC "-//W3C//DTD SVG 20010904//EN"
 "http://www.w3.org/TR/2001/REC-SVG-20010904/DTD/svg10.dtd">
<svg version="1.0" xmlns="http://www.w3.org/2000/svg"
 width="4096.000000pt" height="4096.000000pt" viewBox="0 0 4096.000000 4096.000000"
 preserveAspectRatio="xMidYMid meet">

<g transform="translate(0.000000,4096.000000) scale(0.100000,-0.100000)"
fill="#000000" stroke="none">
<path d="M19625 38363 c-120 -3 -361 -17 -580 -34 -77 -6 -286 -16 -465 -24
-253 -10 -335 -16 -370 -29 -64 -24 -219 -46 -325 -46 -139 -1 -275 -17 -325
-39 -42 -18 -87 -25 -348 -51 -63 -6 -117 -17 -140 -29 -48 -24 -123 -38 -251
-46 -87 -5 -115 -11 -166 -36 -48 -23 -84 -31 -165 -39 -132 -12 -154 -17
-211 -45 -30 -16 -85 -29 -162 -39 -86 -11 -128 -21 -159 -40 -27 -15 -74 -29
-123 -36 -44 -6 -110 -25 -147 -41 -37 -17 -109 -37 -160 -46 -54 -9 -110 -25
-133 -39 -22 -12 -80 -30 -130 -39 -49 -10 -100 -25 -113 -35 -28 -23 -67 -35
-150 -50 -34 -6 -78 -22 -98 -35 -19 -13 -67 -31 -107 -40 -40 -9 -93 -27
-118 -40 -25 -13 -75 -31 -109 -40 -35 -9 -80 -25 -101 -35 -20 -11 -69 -28
-108 -39 -39 -11 -85 -29 -101 -41 -17 -12 -58 -29 -93 -39 -34 -10 -86 -30
-115 -45 -30 -15 -82 -36 -117 -47 -34 -10 -68 -26 -75 -34 -7 -8 -43 -24 -80
-35 -37 -11 -74 -28 -84 -39 -9 -10 -45 -26 -79 -36 -34 -9 -80 -27 -102 -40
-22 -12 -69 -33 -105 -46 -36 -13 -85 -36 -109 -51 -25 -15 -49 -28 -55 -28
-11 0 -203 -91 -246 -116 -14 -9 -45 -24 -70 -35 -53 -23 -78 -36 -185 -93
-263 -140 -328 -177 -355 -201 -14 -12 -47 -30 -75 -39 -27 -9 -61 -27 -75
-40 -14 -13 -46 -30 -71 -39 -25 -8 -66 -30 -92 -48 -62 -46 -164 -109 -176
-109 -6 0 -26 -14 -46 -31 -19 -17 -58 -40 -87 -51 -29 -11 -62 -28 -73 -38
-31 -29 -186 -130 -200 -130 -6 0 -22 -12 -36 -26 -13 -14 -49 -39 -79 -55
-53 -29 -82 -47 -164 -106 -22 -15 -59 -39 -82 -53 -48 -29 -105 -69 -172
-122 -26 -21 -51 -38 -55 -38 -10 0 -111 -71 -167 -118 -19 -16 -50 -37 -67
-48 -18 -10 -33 -22 -33 -26 0 -4 -28 -27 -61 -50 -132 -92 -163 -116 -365
-279 -65 -52 -132 -104 -149 -114 -16 -11 -82 -65 -145 -120 -63 -55 -151
-130 -194 -165 -132 -108 -306 -262 -391 -346 -44 -43 -143 -135 -220 -204
-379 -338 -518 -473 -647 -628 -115 -137 -275 -314 -417 -461 -34 -36 -123
-133 -165 -181 -12 -14 -33 -41 -46 -60 -26 -38 -88 -113 -135 -165 -16 -18
-46 -53 -67 -77 -20 -23 -54 -63 -75 -88 -41 -48 -77 -94 -133 -170 -59 -80
-93 -124 -121 -155 -73 -80 -107 -122 -119 -144 -23 -45 -151 -211 -196 -255
-17 -17 -39 -47 -49 -66 -20 -39 -70 -115 -114 -175 -17 -22 -46 -61 -65 -87
-19 -25 -42 -61 -52 -80 -17 -35 -82 -126 -120 -168 -12 -14 -30 -45 -40 -70
-9 -25 -30 -63 -46 -85 -59 -83 -98 -142 -122 -187 -14 -26 -30 -49 -36 -53
-6 -4 -22 -30 -37 -58 -14 -29 -39 -68 -54 -87 -16 -19 -29 -40 -29 -46 0 -6
-13 -29 -29 -51 -16 -23 -42 -65 -56 -94 -15 -29 -35 -64 -45 -79 -28 -42 -82
-132 -110 -185 -15 -27 -41 -72 -59 -99 -17 -28 -31 -55 -31 -61 0 -6 -11 -27
-25 -47 -14 -21 -42 -68 -61 -105 -20 -37 -54 -99 -75 -138 -53 -99 -99 -188
-236 -455 -66 -129 -127 -248 -136 -265 -29 -53 -96 -200 -112 -244 -8 -23
-23 -54 -33 -69 -10 -15 -27 -47 -36 -72 -10 -25 -28 -63 -41 -85 -12 -22 -30
-63 -38 -91 -8 -28 -29 -78 -46 -110 -16 -32 -37 -79 -46 -104 -9 -24 -24 -58
-34 -75 -10 -17 -26 -56 -36 -86 -9 -30 -28 -73 -41 -96 -14 -23 -34 -73 -45
-110 -12 -37 -30 -86 -41 -107 -11 -22 -27 -62 -35 -90 -8 -28 -25 -69 -37
-91 -13 -22 -33 -74 -46 -115 -12 -41 -30 -91 -40 -110 -10 -20 -26 -65 -35
-100 -9 -35 -29 -89 -44 -119 -15 -31 -35 -86 -44 -123 -9 -37 -26 -82 -36
-100 -11 -18 -27 -69 -36 -113 -10 -44 -28 -101 -41 -127 -14 -26 -31 -80 -39
-120 -8 -40 -28 -109 -44 -153 -16 -44 -34 -109 -41 -145 -6 -36 -23 -90 -36
-120 -14 -30 -32 -90 -40 -132 -8 -43 -26 -108 -40 -145 -14 -37 -30 -95 -35
-128 -6 -33 -23 -98 -39 -145 -16 -47 -36 -128 -45 -180 -9 -52 -29 -135 -45
-185 -16 -49 -36 -136 -44 -192 -8 -55 -24 -129 -36 -162 -11 -33 -29 -120
-40 -193 -11 -73 -28 -160 -39 -193 -12 -33 -32 -134 -45 -225 -14 -91 -31
-185 -39 -210 -15 -44 -21 -76 -53 -309 -8 -63 -24 -151 -34 -195 -11 -45 -28
-178 -39 -297 -12 -119 -27 -247 -35 -285 -22 -105 -34 -230 -46 -449 -6 -110
-17 -263 -26 -340 -29 -274 -33 -345 -45 -760 -8 -270 -9 -596 -5 -915 9 -613
19 -847 45 -1020 11 -74 25 -229 30 -345 15 -296 20 -349 42 -444 23 -99 35
-207 48 -431 6 -91 18 -192 27 -225 30 -110 34 -136 49 -278 8 -86 24 -176 40
-227 15 -50 32 -144 41 -227 9 -89 24 -169 39 -214 14 -39 32 -124 40 -188 9
-64 29 -154 45 -201 15 -47 31 -119 35 -160 8 -92 22 -154 46 -199 18 -33 25
-64 48 -202 6 -37 20 -87 32 -113 11 -26 28 -95 38 -154 10 -59 28 -127 40
-150 12 -23 30 -84 40 -135 11 -52 28 -112 39 -134 12 -22 28 -80 37 -129 9
-49 27 -112 40 -141 13 -29 31 -87 41 -129 9 -43 29 -105 44 -138 15 -34 33
-90 39 -126 7 -36 25 -92 40 -125 16 -33 34 -85 41 -115 7 -30 26 -81 41 -112
16 -32 34 -81 40 -110 6 -29 22 -71 34 -93 13 -22 33 -74 46 -115 12 -41 32
-95 44 -120 12 -25 30 -70 40 -100 10 -30 28 -73 41 -95 12 -22 31 -69 40
-105 10 -36 28 -78 40 -95 12 -16 29 -55 39 -85 10 -30 26 -67 37 -82 10 -15
27 -51 37 -81 10 -29 32 -77 49 -107 16 -30 33 -66 37 -80 9 -32 74 -180 125
-285 21 -44 42 -91 46 -105 4 -14 15 -37 26 -53 11 -15 31 -55 45 -89 14 -34
33 -72 42 -84 10 -13 26 -44 36 -71 10 -26 29 -64 41 -83 12 -19 31 -55 40
-80 10 -25 28 -61 41 -80 12 -19 30 -57 39 -85 10 -27 27 -63 39 -80 12 -16
32 -56 44 -87 13 -32 30 -63 38 -70 9 -7 24 -33 35 -57 18 -44 63 -122 124
-216 48 -75 80 -132 118 -211 19 -40 40 -75 46 -79 6 -4 21 -28 31 -54 11 -25
35 -68 53 -96 45 -68 69 -108 110 -185 18 -36 43 -74 55 -84 12 -11 21 -25 21
-32 0 -6 16 -36 36 -65 20 -30 44 -70 54 -90 10 -19 26 -42 35 -49 9 -8 27
-34 40 -59 24 -48 80 -138 113 -181 11 -14 29 -45 42 -70 12 -25 34 -59 49
-76 34 -40 89 -115 126 -174 62 -98 104 -156 120 -170 9 -7 23 -27 32 -44 29
-59 88 -142 163 -228 41 -47 95 -116 120 -153 56 -83 103 -141 185 -230 36
-38 79 -91 97 -116 118 -168 114 -162 276 -334 75 -79 179 -201 247 -290 38
-49 100 -126 139 -170 111 -128 981 -1001 1126 -1131 36 -32 67 -61 70 -64 3
-4 46 -37 95 -74 146 -109 194 -150 302 -253 109 -106 178 -164 288 -243 68
-50 123 -95 189 -155 41 -37 105 -87 216 -167 47 -34 90 -66 95 -73 16 -18 91
-74 218 -166 66 -46 145 -103 177 -125 31 -23 77 -54 101 -68 24 -15 73 -49
109 -76 36 -27 90 -64 120 -81 30 -18 66 -41 80 -51 14 -10 54 -37 90 -60 36
-23 85 -55 110 -71 25 -17 92 -59 150 -93 58 -35 116 -71 130 -81 30 -22 157
-93 229 -128 29 -14 67 -36 85 -49 17 -13 76 -47 131 -76 55 -29 114 -63 130
-75 17 -12 51 -31 77 -43 26 -11 62 -32 80 -45 18 -14 51 -30 73 -37 22 -7 58
-25 80 -40 22 -15 57 -33 77 -39 20 -7 54 -24 75 -38 21 -14 65 -37 97 -49 33
-13 67 -31 76 -39 9 -8 42 -24 74 -35 32 -11 73 -29 91 -40 18 -11 57 -29 86
-39 30 -10 77 -30 104 -44 65 -34 243 -113 275 -122 14 -4 54 -23 89 -41 35
-19 72 -34 81 -34 9 0 44 -14 77 -30 33 -17 89 -39 124 -51 35 -11 82 -31 104
-44 22 -12 63 -30 91 -38 28 -8 70 -25 93 -37 23 -11 72 -30 109 -42 37 -11
88 -31 113 -44 25 -12 76 -30 113 -38 37 -9 81 -23 99 -33 29 -14 114 -45 317
-113 36 -12 115 -37 175 -55 61 -18 157 -48 215 -66 58 -17 155 -44 215 -60
61 -15 155 -40 210 -55 55 -14 186 -48 290 -75 105 -27 206 -57 225 -65 19 -9
98 -24 175 -35 77 -10 172 -28 210 -39 39 -11 129 -27 200 -36 72 -9 161 -26
200 -40 69 -24 127 -33 352 -54 67 -6 142 -21 190 -36 70 -23 101 -27 308 -35
166 -6 256 -14 325 -29 52 -11 120 -25 150 -30 34 -7 518 -10 1270 -10 1278 0
1295 0 1510 45 41 9 167 20 280 24 188 8 213 12 304 40 80 25 127 33 250 41
164 11 166 11 276 45 96 30 112 33 246 44 61 6 137 19 170 30 32 11 120 29
196 41 75 11 178 32 230 46 51 14 137 34 192 45 54 11 122 29 150 40 28 11
139 42 246 70 201 51 399 110 530 159 41 15 102 35 135 45 33 9 77 26 98 36
37 19 118 49 277 102 167 56 208 69 279 88 41 11 99 33 130 49 31 15 77 33
101 40 44 12 126 47 265 115 88 44 177 80 283 116 45 16 102 39 125 53 23 13
60 29 82 36 22 7 54 23 72 36 17 13 55 33 83 44 29 12 64 29 77 40 14 11 50
29 81 40 31 12 71 30 87 40 17 9 47 23 68 30 21 6 86 37 145 68 59 31 135 70
170 88 34 18 75 42 90 52 15 11 56 34 92 51 36 17 76 38 90 46 14 8 50 26 80
40 89 42 232 124 344 197 32 21 62 38 67 38 5 0 26 11 47 25 20 13 60 37 89
52 28 15 92 55 143 88 50 33 126 82 168 109 121 77 232 151 297 197 33 24 83
59 111 79 28 19 84 60 125 91 41 31 92 68 114 82 41 27 113 79 181 131 22 17
63 47 92 68 142 103 169 124 197 149 30 28 67 56 140 106 80 55 162 120 255
202 52 46 120 103 150 125 137 101 216 171 365 321 89 88 203 198 255 245 127
114 440 408 463 434 10 12 69 73 130 136 274 283 329 341 421 445 54 61 106
117 116 125 54 46 265 295 357 422 19 27 59 71 119 132 46 46 139 168 203 265
22 33 51 68 115 141 13 14 55 72 95 130 40 58 92 130 117 160 42 52 85 110
162 219 17 25 54 75 82 111 27 36 61 85 75 110 14 25 48 74 75 110 27 36 62
85 76 110 15 25 52 82 83 128 31 45 72 109 91 141 19 32 48 78 64 102 76 115
118 183 171 273 17 28 42 69 56 91 38 59 94 155 117 200 11 22 35 63 53 91 34
51 42 64 108 179 68 119 176 323 263 500 38 77 76 151 84 165 8 14 22 41 30
60 15 34 116 238 154 310 53 101 184 390 195 430 4 14 16 41 27 60 11 19 29
60 40 90 10 30 29 71 42 91 14 20 31 59 39 86 8 27 24 67 35 89 10 21 29 71
42 109 12 39 32 88 45 110 12 22 28 65 35 95 7 30 25 80 40 110 15 30 35 80
45 110 10 30 28 73 41 95 12 22 30 69 39 104 9 36 27 85 39 110 13 25 31 79
40 120 9 40 28 95 41 121 13 27 33 79 43 117 11 37 31 95 45 128 13 33 30 83
36 112 5 28 22 77 37 109 14 32 35 100 46 152 10 52 27 111 37 131 10 20 26
74 36 120 9 47 30 117 46 157 16 40 29 80 29 89 0 36 33 172 50 205 10 20 27
83 38 141 11 57 30 126 41 152 11 26 30 101 40 166 11 65 29 141 40 169 11 28
27 104 36 169 9 65 28 150 41 188 14 39 31 122 39 185 7 64 21 136 30 160 29
78 35 112 50 265 8 83 24 179 34 215 25 81 38 167 51 340 6 74 17 162 25 195
28 111 35 169 50 405 14 232 19 265 50 405 12 52 18 171 25 470 5 220 14 468
20 550 5 83 12 278 16 435 6 266 3 384 -26 1065 -6 132 -15 368 -20 525 -7
204 -16 315 -30 390 -11 58 -24 184 -30 280 -17 274 -27 378 -49 470 -11 47
-29 166 -40 265 -11 99 -30 221 -41 270 -11 50 -27 158 -35 240 -9 94 -24 182
-40 235 -14 47 -32 132 -40 190 -9 58 -26 143 -40 190 -13 47 -31 139 -39 205
-9 70 -25 147 -39 185 -14 36 -30 101 -37 145 -7 44 -25 118 -41 165 -15 47
-33 114 -40 150 -6 36 -24 106 -40 155 -15 50 -36 131 -45 180 -9 50 -23 103
-31 119 -8 16 -28 79 -44 140 -16 61 -42 152 -58 201 -16 50 -39 119 -51 155
-12 36 -33 103 -46 150 -14 47 -36 110 -49 140 -13 30 -31 84 -40 120 -9 36
-27 88 -40 115 -12 28 -32 85 -44 128 -12 43 -27 88 -35 100 -8 12 -26 60 -41
107 -16 47 -34 94 -41 105 -7 11 -24 58 -38 105 -14 47 -32 94 -39 105 -8 11
-24 52 -37 90 -12 39 -33 93 -46 122 -12 28 -31 77 -40 109 -9 32 -27 74 -40
94 -13 19 -32 60 -42 90 -11 31 -28 74 -39 95 -11 22 -31 72 -43 110 -13 39
-31 81 -42 94 -10 13 -26 49 -35 80 -9 31 -27 70 -40 88 -13 17 -29 49 -35 70
-5 21 -48 117 -95 213 -47 96 -106 218 -132 270 -39 82 -103 202 -259 490 -19
36 -41 72 -48 80 -7 8 -22 41 -34 72 -11 31 -30 68 -41 83 -12 14 -34 52 -50
83 -17 31 -48 84 -69 117 -22 33 -52 83 -66 110 -33 63 -87 155 -130 220 -17
28 -41 68 -53 90 -12 22 -52 90 -89 150 -61 100 -115 184 -287 446 -33 50 -75
114 -93 142 -17 29 -52 79 -77 112 -49 65 -74 102 -144 210 -25 39 -55 81 -68
95 -24 28 -50 63 -118 160 -75 108 -95 133 -129 170 -18 19 -40 46 -49 60 -10
14 -33 45 -52 70 -19 25 -49 65 -66 90 -18 25 -48 64 -68 86 -20 23 -53 63
-74 90 -104 133 -136 174 -186 234 -30 36 -63 74 -75 86 -40 39 -170 185 -186
208 -53 81 -628 693 -914 975 -99 97 -194 190 -212 208 -17 17 -58 54 -90 81
-74 61 -360 317 -394 351 -81 82 -268 246 -360 316 -29 22 -72 56 -95 75 -24
19 -66 53 -95 75 -28 22 -73 59 -100 82 -27 23 -60 48 -72 54 -13 7 -39 24
-58 39 -19 15 -69 52 -110 84 -41 31 -100 77 -130 101 -30 25 -75 57 -100 72
-47 28 -95 65 -159 120 -21 18 -84 64 -142 103 -57 38 -131 91 -164 116 -33
25 -85 58 -116 74 -30 16 -61 36 -69 45 -8 9 -39 30 -69 46 -87 46 -163 95
-176 112 -6 9 -41 30 -76 47 -66 31 -158 93 -172 116 -4 7 -30 20 -58 29 -28
10 -65 29 -82 44 -18 15 -52 35 -77 46 -25 10 -63 31 -85 46 -60 40 -104 65
-169 99 -33 17 -69 39 -81 50 -12 11 -43 27 -71 36 -27 9 -65 29 -84 43 -19
15 -55 35 -80 45 -25 10 -65 31 -89 46 -24 16 -60 34 -80 41 -20 6 -50 22 -68
35 -17 13 -55 33 -84 44 -29 12 -65 30 -80 41 -15 11 -47 26 -70 34 -24 9 -64
28 -89 44 -25 16 -63 34 -85 41 -22 7 -52 21 -67 31 -14 11 -59 32 -98 48 -40
16 -79 36 -88 44 -10 8 -47 24 -84 36 -36 12 -72 29 -78 37 -7 7 -35 21 -63
29 -28 8 -78 29 -111 46 -32 17 -82 38 -110 46 -28 8 -76 28 -106 44 -30 15
-68 31 -85 35 -16 4 -55 19 -85 35 -30 15 -84 35 -120 44 -36 9 -85 27 -110
40 -25 13 -79 33 -120 45 -41 12 -90 30 -108 41 -18 10 -63 26 -100 34 -36 9
-87 27 -112 41 -25 14 -86 34 -137 44 -51 10 -111 30 -136 44 -24 14 -57 26
-74 26 -43 0 -130 28 -172 55 -25 17 -61 27 -118 34 -46 6 -97 18 -114 28 -17
10 -41 23 -52 30 -11 6 -55 15 -96 18 -100 9 -136 19 -181 50 -32 22 -54 27
-146 35 -119 9 -131 12 -185 47 -31 20 -55 25 -160 32 -105 7 -135 13 -194 38
-59 26 -91 32 -202 41 -112 9 -142 15 -204 42 -67 30 -82 32 -238 40 -171 9
-191 12 -275 50 -43 20 -75 23 -255 31 -195 7 -302 21 -416 52 -33 10 -141 16
-320 21 -245 6 -453 18 -820 45 -150 12 -450 19 -610 14z m-5502 -3260 c5
-173 21 -253 86 -452 24 -74 125 -276 191 -383 177 -285 449 -556 1020 -1018
180 -145 249 -204 406 -345 140 -126 210 -196 294 -294 113 -133 231 -294 251
-344 7 -17 23 -45 35 -62 29 -40 110 -213 140 -300 54 -155 94 -380 94 -525
-1 -229 -113 -553 -257 -744 -155 -204 -360 -363 -579 -447 -43 -17 -83 -34
-89 -39 -34 -28 -214 -55 -355 -54 -337 5 -346 8 -128 55 234 49 270 61 406
125 123 59 195 104 307 196 158 128 279 309 321 478 24 96 50 344 41 381 -3
11 -1 35 4 55 6 19 9 43 7 52 -7 30 -34 -36 -67 -163 -56 -218 -164 -389 -337
-538 -111 -96 -153 -113 -291 -121 -107 -7 -213 0 -213 13 0 3 37 26 83 51 45
25 106 66 137 91 69 57 159 167 194 238 15 29 41 71 57 93 36 50 102 254 119
367 18 118 7 298 -25 431 -30 119 -69 249 -90 294 -7 17 -28 65 -45 106 -67
161 -178 348 -277 469 -61 73 -194 204 -200 197 -3 -2 22 -58 55 -123 33 -65
63 -129 67 -143 4 -14 27 -76 52 -138 62 -162 185 -623 169 -639 -5 -5 -36 47
-99 167 -75 143 -167 294 -260 426 -151 214 -613 842 -841 1142 -80 106 -146
197 -146 204 0 6 -3 9 -6 5 -8 -8 -51 49 -218 283 -70 99 -133 183 -138 186
-7 4 -8 -8 -4 -32 3 -22 8 -70 12 -109 14 -162 74 -372 140 -494 19 -35 33
-68 31 -74 -2 -6 -37 34 -77 88 -41 55 -77 102 -80 105 -4 3 -22 28 -40 55
-41 60 -77 101 -84 94 -3 -2 8 -56 24 -119 46 -184 72 -372 95 -685 60 -842
112 -1073 303 -1364 91 -139 265 -306 354 -340 39 -15 41 -2 7 43 -147 195
-257 418 -284 576 l-6 35 18 -32 c50 -88 269 -295 364 -343 47 -24 59 -25 59
-3 0 21 -81 198 -131 285 -22 36 -43 79 -49 95 -8 23 -1 19 43 -28 68 -72 132
-169 185 -284 57 -123 76 -201 76 -315 1 -129 -19 -184 -93 -259 -85 -86 -184
-121 -574 -201 -247 -51 -266 -51 -307 -2 -39 45 -182 335 -243 492 -68 173
-132 404 -161 580 -56 339 -79 741 -57 1001 16 185 57 527 77 632 82 436 298
1098 468 1434 20 40 36 79 36 88 0 8 4 15 9 15 5 0 11 -75 14 -167z m11904
125 c61 -98 184 -401 288 -710 139 -410 226 -791 275 -1196 47 -395 32 -854
-40 -1212 -10 -52 -26 -131 -34 -175 -20 -105 -122 -414 -179 -540 -90 -204
-234 -464 -288 -522 -22 -23 -28 -24 -84 -18 -54 7 -145 24 -354 69 -238 52
-333 89 -410 161 -72 67 -86 111 -86 265 1 148 23 242 86 360 48 89 202 307
206 293 2 -5 -32 -83 -76 -174 -79 -165 -107 -236 -98 -246 12 -11 53 12 146
82 99 75 173 148 252 249 24 30 44 54 46 52 5 -4 -40 -131 -81 -228 -61 -148
-183 -350 -240 -397 -21 -18 -20 -35 2 -27 9 4 46 25 82 46 140 84 288 258
379 443 113 232 159 429 186 802 26 352 45 576 56 660 25 194 71 455 90 513
21 62 21 86 0 60 -30 -36 -123 -162 -175 -238 -71 -103 -65 -95 -72 -87 -4 3
10 45 31 93 63 147 115 380 115 514 0 92 14 106 -195 -185 -88 -121 -173 -236
-190 -256 -32 -38 -153 -200 -170 -228 -5 -9 -37 -51 -70 -93 -33 -42 -84
-109 -112 -150 -180 -250 -403 -555 -492 -673 -104 -136 -221 -310 -221 -328
0 -5 -17 -35 -39 -66 -21 -31 -62 -101 -92 -155 -29 -53 -55 -93 -57 -87 -2 5
8 56 22 113 14 57 35 146 47 198 46 200 221 651 291 753 11 15 16 27 12 27
-13 0 -206 -205 -260 -275 -130 -172 -296 -523 -354 -752 -22 -84 -50 -296
-50 -377 0 -69 27 -239 52 -321 22 -73 120 -255 194 -361 63 -90 149 -164 270
-232 122 -69 125 -66 -61 -62 -126 2 -200 12 -238 31 -58 30 -162 117 -224
187 -96 108 -120 142 -160 230 -19 42 -43 95 -53 117 -10 22 -26 76 -34 120
-9 44 -20 83 -25 88 -29 29 -18 -297 15 -430 18 -74 94 -234 141 -298 108
-147 272 -280 466 -375 120 -60 163 -75 315 -110 129 -30 220 -60 197 -66 -5
-1 -36 -4 -67 -7 -45 -3 -58 -1 -58 11 0 7 -6 12 -12 9 -7 -2 -12 -10 -11 -16
4 -17 -17 -13 -23 4 -5 11 -10 12 -18 6 -16 -13 -217 -7 -276 9 -90 23 -277
103 -360 153 -149 90 -243 171 -349 302 -242 298 -343 639 -297 999 9 71 22
150 28 175 22 92 78 245 117 321 10 19 22 45 26 58 9 31 86 161 143 242 198
281 450 530 917 905 263 211 421 350 598 524 284 280 462 540 575 841 71 190
98 350 89 528 -3 56 -3 102 -1 102 2 0 16 -19 31 -42z m-187 14 c0 -38 -72
-311 -102 -387 -80 -204 -210 -416 -384 -625 -126 -153 -448 -451 -734 -680
-620 -497 -861 -738 -1104 -1105 -64 -97 -165 -309 -196 -415 -82 -273 -105
-593 -60 -825 37 -188 66 -298 95 -360 13 -27 42 -90 64 -139 86 -187 276
-435 438 -569 66 -55 208 -157 218 -157 3 0 34 -18 70 -40 35 -23 117 -65 182
-95 127 -59 338 -118 623 -175 248 -50 381 -102 552 -213 87 -57 87 -55 -12
-96 -121 -51 -309 -191 -441 -328 -86 -89 -179 -208 -179 -228 0 -6 23 -9 62
-6 136 7 233 -43 338 -175 60 -74 94 -124 85 -124 -6 0 -102 27 -229 64 -48
14 -97 26 -108 26 -19 0 -19 0 -1 -24 25 -32 195 -189 318 -295 117 -100 268
-214 322 -242 l38 -20 -40 6 c-22 3 -69 11 -105 17 -75 12 -372 5 -410 -11
-14 -5 -81 -21 -150 -36 -69 -14 -154 -35 -190 -47 -174 -56 -429 -183 -590
-294 -72 -49 -102 -56 -66 -15 7 9 18 39 24 66 6 28 20 86 31 129 27 105 45
266 38 335 -4 31 -19 99 -36 152 -16 52 -35 131 -42 174 l-14 79 -11 -115
c-25 -252 -116 -454 -271 -600 -67 -63 -108 -92 -388 -274 -65 -42 -144 -97
-173 -121 -30 -25 -57 -43 -59 -40 -10 10 100 191 146 239 45 47 30 47 -45 -1
-165 -108 -308 -256 -543 -562 -316 -412 -319 -415 -461 -459 -81 -26 -97 -26
-162 -1 -29 11 -55 16 -58 12 -13 -19 -162 -134 -234 -181 -86 -56 -164 -84
-205 -74 -74 17 -121 69 -121 132 0 45 24 133 58 217 38 90 171 360 222 449
99 172 123 239 67 188 -12 -12 -47 -37 -77 -56 -119 -75 -255 -222 -338 -362
-22 -38 -48 -79 -57 -90 l-16 -20 5 20 c4 20 63 164 113 280 46 106 180 318
265 419 108 128 143 175 136 181 -3 3 -25 -4 -49 -15 -24 -11 -52 -20 -62 -20
-70 -1 -295 -143 -421 -267 -291 -285 -419 -566 -521 -1148 -22 -123 -43 -245
-51 -300 -7 -42 -9 -27 -15 95 -5 99 -18 205 -43 335 -49 258 -50 263 -117
485 -66 217 -108 332 -120 325 -4 -3 -1 -31 7 -63 7 -31 18 -136 25 -232 19
-309 -28 -651 -127 -923 -51 -138 -112 -274 -99 -217 13 57 26 364 20 480 -13
255 -58 571 -100 706 -25 77 -25 80 -26 488 -1 226 2 434 6 461 7 53 78 369
94 420 18 60 90 242 122 310 88 186 218 380 388 580 85 99 70 95 -104 -27
-206 -145 -354 -326 -505 -615 -12 -24 -24 -43 -26 -43 -5 0 3 139 17 305 10
118 21 174 80 409 30 119 135 373 182 445 13 20 35 54 48 76 32 56 159 213
205 255 51 47 132 112 168 135 44 29 14 29 -41 0 -313 -167 -566 -402 -712
-663 -62 -111 -72 -135 -80 -186 -7 -47 -26 -58 -34 -19 -3 15 -23 69 -43 118
-99 235 -326 485 -603 663 -81 53 -201 115 -208 108 -3 -2 28 -29 69 -59 117
-87 254 -241 346 -387 97 -155 215 -473 256 -686 18 -97 53 -525 42 -513 -2 2
-26 46 -52 96 -101 191 -256 389 -394 504 -86 71 -200 151 -211 147 -6 -2 28
-50 76 -107 128 -154 281 -398 335 -531 7 -19 30 -74 51 -121 50 -111 145
-445 164 -576 12 -79 16 -216 18 -600 4 -872 3 -878 -32 -1198 -17 -159 -37
-357 -44 -440 l-13 -150 -52 210 c-84 341 -107 590 -99 1090 3 176 9 338 12
360 12 66 -10 29 -49 -85 -37 -110 -96 -367 -120 -532 -26 -168 -30 -422 -11
-598 9 -85 23 -183 32 -218 9 -34 12 -66 9 -70 -19 -18 -153 174 -206 293 -50
114 -70 195 -145 558 -62 308 -96 426 -155 535 -89 164 -197 274 -445 451
-101 71 -466 229 -510 219 -9 -2 15 -34 71 -93 205 -216 374 -482 508 -798 56
-133 37 -128 -32 8 -63 124 -167 288 -202 320 -18 17 -20 17 -20 1 0 -9 16
-56 35 -103 40 -94 112 -375 122 -468 3 -33 3 -58 0 -55 -2 3 -15 41 -27 85
-39 141 -118 277 -228 395 -48 51 -61 60 -62 44 0 -11 13 -38 29 -60 64 -86
106 -271 99 -434 -3 -77 -8 -102 -26 -132 -64 -103 -211 -84 -349 46 -47 44
-66 55 -103 60 -24 3 -85 26 -135 50 -111 54 -199 137 -330 310 -257 340 -359
456 -497 572 -101 84 -208 159 -208 145 0 -5 15 -28 34 -50 64 -76 152 -220
129 -209 -9 3 -253 162 -422 273 -283 187 -414 389 -450 696 -5 42 -7 99 -5
125 4 44 3 46 -6 19 -6 -16 -18 -55 -26 -85 -9 -30 -22 -75 -30 -99 -23 -72
-37 -236 -31 -366 6 -137 32 -251 77 -339 17 -33 28 -61 26 -64 -3 -2 -45 23
-95 57 -169 114 -393 225 -593 291 -61 21 -217 57 -368 87 -104 20 -395 13
-462 -12 -75 -27 -80 -11 -8 23 72 35 251 175 405 317 225 208 269 257 213
239 -13 -4 -43 -13 -68 -20 -25 -7 -91 -26 -148 -43 -56 -17 -107 -31 -113
-31 -15 0 101 148 160 203 79 74 138 98 241 97 47 -1 88 -1 93 -1 4 1 -27 46
-69 101 -142 186 -340 351 -541 450 -57 28 -103 54 -103 58 1 9 172 115 220
136 113 50 229 89 335 111 341 73 561 132 670 181 221 98 455 254 588 391 224
231 358 453 441 730 62 208 76 286 83 465 9 241 -11 382 -88 623 -39 123 -148
353 -188 400 -10 11 -27 36 -39 55 -76 127 -319 408 -485 562 -96 89 -283 245
-552 463 -351 284 -684 596 -808 756 -256 332 -389 616 -432 922 -4 28 -2 47
3 47 6 0 29 -34 52 -76 142 -259 408 -586 690 -848 199 -185 380 -322 606
-457 117 -70 567 -296 714 -359 133 -57 391 -192 515 -270 311 -195 600 -483
790 -788 22 -35 66 -105 98 -155 31 -51 94 -166 138 -257 45 -91 93 -187 106
-215 14 -27 40 -94 59 -147 19 -54 48 -124 64 -157 17 -32 30 -64 30 -72 0 -8
3 -9 9 -4 9 9 -11 157 -40 290 -6 28 -19 100 -29 160 -44 258 -61 348 -90 456
-98 369 -92 512 28 672 57 74 112 117 189 149 55 22 70 23 278 22 532 -1 965
-111 1228 -311 83 -64 100 -81 185 -185 35 -43 65 -78 68 -78 6 0 -23 68 -55
125 -26 47 -54 111 -131 300 -19 44 -53 110 -78 147 -54 82 -179 204 -244 238
-27 14 -48 28 -48 32 0 3 32 36 72 73 94 87 238 160 353 179 93 15 352 13 438
-3 106 -19 245 -95 347 -189 l65 -59 -35 -18 c-53 -27 -129 -87 -181 -141 -87
-90 -179 -257 -194 -349 l-6 -40 18 24 c53 68 105 119 168 160 83 55 117 71
152 71 15 0 106 16 202 35 503 98 927 139 1057 100 53 -16 99 -56 130 -115 30
-56 23 -204 -21 -455 -76 -433 -95 -710 -75 -1100 13 -256 23 -352 33 -325 3
8 15 56 27 105 29 126 75 266 117 360 265 594 562 1012 933 1311 175 141 351
244 697 405 482 224 623 297 808 412 222 139 450 323 655 527 266 265 447 498
594 763 38 67 56 83 56 49z m-10235 -4109 c-15 -82 -66 -166 -154 -253 -99
-98 -161 -133 -279 -156 -90 -18 -118 -15 -104 13 5 10 8 23 5 29 -6 18 30 42
107 69 168 60 348 194 407 303 23 41 27 40 18 -5z m11649 -229 c-120 -276
-259 -558 -321 -649 -41 -60 -58 -75 -118 -107 -38 -21 -73 -38 -77 -38 -16 0
-7 28 33 110 85 176 158 440 175 632 l7 76 61 20 c67 22 251 117 300 156 17
13 32 23 33 22 1 -1 -40 -101 -93 -222z m-14311 121 c136 -70 217 -100 413
-151 63 -16 202 -34 266 -34 41 0 50 -4 71 -32 66 -88 96 -160 148 -356 30
-112 7 -162 -73 -162 -104 1 -320 153 -439 310 -75 99 -101 93 -47 -13 10 -21
32 -70 47 -110 16 -40 47 -118 70 -174 23 -56 41 -110 41 -120 0 -10 7 -42 15
-72 8 -30 12 -58 9 -63 -6 -9 -70 35 -177 122 -81 65 -148 161 -235 335 -84
169 -262 577 -262 601 0 3 10 -1 23 -10 12 -9 71 -41 130 -71z m13902 -214
c-29 -55 -62 -112 -73 -128 -11 -15 -54 -82 -95 -148 -66 -106 -127 -183 -127
-161 0 4 18 42 39 84 43 82 75 160 97 232 29 96 10 77 -39 -37 -42 -99 -130
-233 -202 -309 -46 -48 -56 -55 -85 -52 -21 2 -40 12 -51 28 -17 23 -17 30 -4
97 15 80 96 326 126 386 19 35 22 37 70 37 73 0 265 30 329 51 30 10 58 18 62
18 3 1 -18 -44 -47 -98z m-12312 -405 c21 -8 88 -23 150 -32 119 -17 220 -14
332 11 33 7 81 16 107 19 26 4 61 14 79 23 18 9 45 16 60 15 16 0 29 4 29 9 0
6 6 7 13 2 14 -9 18 -9 70 -11 50 -3 47 -18 -4 -26 -23 -4 -84 -23 -136 -42
-152 -57 -435 -124 -524 -124 -34 0 -52 11 -154 96 -63 53 -115 101 -115 106
0 5 12 1 28 -10 15 -11 44 -27 65 -36z m-194 -255 c8 -14 6 -22 -8 -35 -35
-31 -43 -68 -33 -142 14 -106 5 -125 -134 -271 -191 -203 -238 -262 -319 -404
-72 -128 -255 -482 -255 -496 0 -3 28 21 63 54 143 137 333 200 516 171 85
-13 87 -9 -42 -86 l-79 -46 6 -39 c10 -60 22 -77 58 -77 17 0 97 -12 177 -26
92 -17 186 -27 254 -28 77 -1 106 -4 103 -13 -3 -6 -47 -76 -99 -155 -60 -91
-119 -166 -161 -206 -36 -35 -66 -66 -66 -68 0 -15 252 12 306 33 25 9 15 -13
-13 -28 -15 -8 -73 -50 -129 -94 -201 -158 -386 -298 -447 -338 -95 -63 -100
-80 -16 -47 76 29 228 56 406 70 121 10 180 10 290 1 200 -18 303 -38 330 -63
28 -26 82 -116 112 -188 41 -99 153 -293 209 -365 110 -140 312 -328 436 -404
l38 -24 -23 -13 c-13 -7 -29 -13 -35 -14 -15 0 -109 -44 -164 -76 -275 -161
-526 -407 -662 -649 -41 -73 -63 -124 -55 -131 3 -3 52 6 109 20 189 47 334
53 417 19 l34 -14 -50 -47 c-66 -63 -315 -329 -355 -380 -176 -220 -268 -344
-364 -487 -157 -235 -233 -365 -351 -595 -83 -162 -183 -376 -183 -392 0 -19
25 -4 113 65 139 111 340 237 354 224 11 -11 -21 -135 -49 -190 -92 -183 -198
-554 -228 -797 -20 -170 -8 -298 52 -540 79 -323 243 -592 651 -1074 218 -258
295 -365 372 -521 53 -106 70 -152 90 -247 14 -65 25 -129 25 -144 0 -42 22
-24 57 46 65 133 106 303 101 428 -2 45 0 82 3 82 3 0 13 -30 22 -67 8 -38 29
-117 45 -178 52 -190 97 -573 91 -764 -2 -53 1 -86 7 -88 15 -5 98 258 120
380 3 21 9 36 11 33 3 -3 9 -76 14 -163 4 -87 17 -221 28 -298 42 -300 159
-718 257 -922 25 -50 51 -109 58 -130 12 -34 13 -18 12 152 -1 220 9 288 66
455 38 109 103 250 117 250 3 0 7 -98 9 -218 3 -236 17 -491 33 -617 14 -104
74 -401 99 -488 83 -292 234 -564 418 -753 73 -75 157 -142 166 -133 3 2 9 46
15 98 6 51 12 96 15 98 3 3 8 -12 11 -33 78 -477 296 -881 677 -1249 101 -99
124 -120 283 -260 127 -113 293 -289 366 -390 45 -61 144 -260 154 -306 11
-55 16 -69 24 -69 11 0 23 123 23 240 0 87 9 114 23 68 57 -188 224 -422 450
-627 231 -211 276 -255 349 -337 87 -97 134 -175 170 -281 12 -37 27 -68 33
-70 7 -3 13 47 18 144 9 187 -7 288 -74 465 -27 70 -44 125 -39 122 20 -13 88
-167 117 -265 24 -83 73 -281 116 -467 6 -25 25 -21 25 6 0 11 8 18 19 18 15
0 20 -10 25 -50 10 -86 23 -72 35 39 20 175 104 452 187 611 47 91 78 136 50
74 -31 -69 -98 -246 -118 -310 -17 -53 -22 -101 -25 -262 -3 -109 -1 -198 3
-198 5 0 29 44 54 97 25 53 63 121 86 152 51 70 190 212 314 322 218 193 328
310 428 458 55 81 116 201 137 269 7 23 25 31 25 9 0 -6 -5 -28 -10 -47 -7
-24 -7 -62 1 -125 16 -126 23 -140 38 -79 20 79 106 239 186 343 105 137 186
219 485 487 160 144 289 274 365 369 102 128 215 304 271 422 86 182 187 509
195 627 2 29 18 -35 18 -74 2 -74 12 -120 28 -120 22 0 211 195 286 295 145
193 265 482 327 785 62 305 79 469 88 853 l7 292 36 -65 c68 -124 122 -296
140 -447 12 -97 8 -355 -6 -385 -4 -10 -3 -18 3 -18 5 0 15 15 22 33 7 17 37
86 65 152 97 224 199 575 244 840 17 95 41 348 41 420 0 38 4 64 9 60 5 -3 17
-37 26 -76 47 -209 133 -394 105 -228 -18 115 47 608 114 849 19 69 38 139 43
155 6 25 8 19 10 -35 6 -137 25 -237 71 -372 25 -76 49 -138 53 -138 3 0 9 18
13 41 9 56 51 199 79 269 54 134 216 383 333 513 54 59 270 321 348 422 235
302 356 547 423 854 25 112 28 145 27 306 -1 166 -3 193 -36 350 -31 148 -66
264 -133 445 -9 24 -25 108 -35 185 -10 77 -23 160 -29 185 -6 25 -11 48 -11
53 0 23 275 -156 399 -259 96 -79 101 -73 44 50 -285 611 -610 1112 -983 1516
-63 69 -119 130 -125 136 -50 56 -139 144 -146 144 -5 0 -9 7 -9 15 0 8 8 15
18 15 10 0 24 6 30 12 29 29 382 -5 453 -43 10 -5 29 -9 43 -9 20 0 24 4 19
18 -14 36 -133 230 -180 292 -67 90 -242 264 -336 334 -110 82 -300 192 -375
217 -35 12 -62 22 -60 24 2 2 35 25 73 51 89 61 215 167 281 235 134 142 201
242 313 470 96 195 121 234 163 247 38 13 242 38 373 48 157 11 471 -27 603
-73 41 -13 76 -23 78 -20 3 2 -23 24 -58 47 -35 24 -112 82 -173 130 -60 48
-177 137 -260 198 -202 150 -195 145 -171 137 27 -8 287 -27 293 -21 3 2 -26
36 -63 73 -66 66 -86 93 -219 297 -32 48 -82 112 -111 141 l-54 52 38 6 c20 3
109 11 197 18 135 9 183 9 310 -5 82 -9 152 -12 156 -8 4 4 9 22 11 41 2 19 8
36 14 38 6 2 31 -15 55 -39 121 -116 182 -167 230 -191 36 -17 85 -58 147
-122 51 -53 97 -95 102 -93 5 2 -7 48 -27 103 -19 55 -41 118 -48 141 -16 49
-108 236 -135 274 -11 16 -20 31 -20 35 0 10 -168 263 -218 330 -66 85 -194
217 -280 287 -40 33 -71 62 -68 65 5 6 84 -37 181 -97 33 -20 81 -49 107 -64
26 -14 54 -36 62 -48 9 -12 18 -20 20 -17 12 11 -288 504 -365 601 -33 42 -36
58 -11 58 20 0 259 -236 353 -350 108 -129 231 -300 303 -419 84 -139 214
-406 261 -534 184 -509 314 -747 520 -952 147 -147 278 -233 460 -300 47 -17
-12 -15 -107 5 -193 40 -372 104 -548 197 -214 113 -367 228 -566 427 -153
153 -253 273 -311 372 -20 35 -39 62 -41 59 -3 -2 3 -28 13 -57 9 -29 30 -100
46 -157 37 -130 118 -310 198 -440 131 -212 366 -451 856 -870 398 -342 601
-557 792 -842 136 -202 213 -338 468 -824 92 -176 194 -362 226 -413 135 -214
314 -416 481 -543 84 -65 98 -79 73 -79 -16 0 -341 84 -530 137 -322 90 -630
241 -1003 492 -99 67 -154 110 -316 250 -11 9 2 -11 28 -44 279 -358 556 -752
699 -995 83 -140 301 -657 426 -1010 104 -293 169 -525 246 -875 29 -134 51
-317 66 -553 13 -209 7 -1002 -8 -1047 l-10 -30 -6 45 c-3 25 -9 77 -13 115
-3 39 -10 76 -14 84 -8 14 -20 -110 -23 -236 -1 -35 -6 -62 -11 -60 -6 2 -19
34 -31 73 -48 155 -195 483 -291 651 -277 482 -712 927 -1179 1205 -105 63
-307 169 -316 166 -4 -2 21 -50 57 -108 94 -153 200 -348 256 -473 264 -589
392 -1221 375 -1847 -7 -230 -22 -373 -63 -595 -32 -169 -43 -195 -44 -100 0
149 -68 447 -143 630 -62 152 -157 325 -250 453 -37 51 -66 70 -52 35 3 -10
19 -76 35 -148 15 -71 39 -170 53 -220 14 -49 39 -151 57 -225 17 -74 47 -191
66 -259 19 -68 33 -125 31 -128 -3 -2 -19 20 -38 49 -63 100 -207 283 -304
386 -118 124 -256 241 -389 330 -91 59 -358 200 -413 217 -29 8 -30 -11 -4
-63 31 -61 126 -329 160 -447 40 -145 96 -413 113 -545 17 -138 17 -620 0
-760 -13 -104 -44 -277 -61 -335 -7 -25 -9 -18 -15 50 -36 413 -124 752 -276
1055 -68 136 -124 229 -139 230 -9 0 -11 -5 -5 -17 4 -10 10 -111 12 -224 7
-392 -52 -713 -208 -1119 -107 -281 -276 -627 -474 -973 -53 -93 -96 -172 -96
-177 0 -5 -3 -11 -7 -13 -5 -3 -8 38 -9 91 -1 126 -19 284 -50 452 -38 206
-52 263 -106 415 -84 237 -200 457 -366 695 -55 78 -221 268 -235 269 -5 1 -6
-11 -3 -26 22 -110 41 -403 40 -628 -2 -453 -27 -677 -120 -1090 -112 -491
-339 -1008 -667 -1515 -34 -52 -63 -97 -65 -100 -2 -2 -7 2 -12 10 -19 29 -10
-46 15 -141 14 -52 30 -114 36 -139 33 -127 276 -1032 299 -1112 15 -53 27
-55 40 -6 16 67 73 256 133 448 31 96 99 319 152 495 53 176 114 377 136 447
l40 127 111 3 c60 2 114 0 120 -3 5 -3 42 -114 83 -245 235 -768 365 -1195
375 -1236 19 -76 36 -80 50 -11 12 55 153 591 184 698 15 52 148 543 189 700
l24 90 178 3 c166 2 177 1 172 -15 -3 -10 -51 -169 -106 -353 -133 -438 -207
-685 -282 -932 -33 -112 -96 -320 -140 -463 -43 -144 -79 -266 -79 -273 0 -7
-8 -20 -17 -29 -16 -16 -34 -17 -163 -13 l-145 5 -18 55 c-48 146 -342 1134
-379 1277 -42 160 -58 195 -58 131 0 -41 -22 -146 -54 -258 -28 -100 -261
-884 -312 -1050 -55 -181 -29 -160 -208 -160 -152 0 -155 0 -161 23 -7 25 -74
241 -110 357 -13 41 -74 244 -135 450 -61 206 -129 429 -150 495 -37 115 -92
295 -178 585 -22 74 -44 143 -47 153 -6 14 -1 17 33 17 23 0 43 3 45 8 3 4
-13 70 -34 147 -60 219 -73 317 -73 570 -1 121 3 248 7 283 4 34 4 62 0 62
-10 0 -73 -213 -103 -348 -27 -126 -43 -366 -36 -547 4 -96 3 -144 -3 -134
-24 38 -73 271 -97 459 -35 272 -37 553 -6 810 12 96 25 186 28 199 23 82
-108 -97 -226 -309 -148 -267 -262 -562 -344 -889 -31 -122 -62 -271 -70 -332
-8 -61 -17 -113 -19 -115 -2 -2 -9 33 -16 79 -26 170 -119 542 -144 575 -6 7
-14 9 -18 5 -8 -9 -104 -225 -147 -333 -17 -41 -56 -129 -86 -195 -31 -66 -71
-151 -88 -190 -34 -74 -284 -570 -361 -715 -109 -207 -403 -723 -522 -915 -37
-60 -87 -141 -110 -180 -275 -452 -527 -859 -542 -875 -12 -13 -13 -10 -8 25
6 43 25 496 25 591 0 32 -2 55 -5 52 -3 -3 -15 -38 -26 -79 -11 -41 -29 -87
-39 -104 -16 -26 -55 -224 -90 -455 -33 -225 -66 -759 -52 -860 6 -48 -14
-221 -32 -265 -2 -5 -4 58 -5 140 -1 148 -6 234 -36 570 -26 295 -45 457 -66
560 -24 113 -93 379 -110 422 -19 44 -23 6 -10 -90 14 -112 26 -577 15 -577
-5 1 -32 38 -61 83 -364 581 -574 926 -775 1272 -145 251 -165 286 -310 555
-182 335 -456 903 -583 1205 -105 253 -129 305 -136 305 -8 0 -20 -38 -85
-275 -44 -159 -58 -238 -71 -390 l-6 -80 -9 55 c-19 123 -81 432 -109 535 -35
136 -104 338 -158 467 -61 145 -213 433 -291 548 -20 30 -48 72 -61 92 -32 50
-42 35 -22 -37 14 -51 16 -125 17 -475 1 -433 -4 -506 -46 -695 -11 -49 -30
-136 -43 -193 -24 -111 -41 -147 -31 -67 26 229 13 477 -39 718 -20 89 -42
196 -51 237 -9 41 -22 86 -30 100 -15 24 -15 24 -9 -15 37 -264 28 -489 -31
-755 -35 -157 -57 -233 -89 -315 -42 -109 -157 -336 -168 -332 -19 6 -247 333
-337 483 -261 437 -417 816 -545 1324 -70 279 -111 575 -130 940 -8 166 22
633 51 778 4 18 2 32 -3 32 -5 0 -37 -28 -70 -62 -209 -219 -413 -557 -531
-878 -33 -92 -111 -380 -126 -470 -23 -132 -39 -328 -35 -423 2 -48 1 -87 -2
-87 -19 0 -365 650 -471 885 -100 221 -212 545 -252 725 -73 334 -104 663 -76
810 4 25 11 62 15 83 5 25 4 37 -4 37 -6 0 -11 -5 -11 -11 0 -5 -26 -56 -58
-112 -112 -196 -182 -372 -267 -671 -27 -98 -55 -312 -62 -479 -3 -87 -9 -154
-14 -150 -8 9 -34 128 -49 223 -70 467 -52 945 51 1355 46 182 85 304 156 483
36 90 63 165 60 168 -13 14 -320 -143 -452 -231 -243 -162 -564 -498 -675
-707 -18 -33 -34 -58 -36 -56 -2 2 5 37 16 78 11 41 49 197 86 345 36 149 83
335 105 414 21 80 36 147 34 150 -10 9 -58 -46 -117 -134 -110 -164 -199 -361
-278 -618 -24 -80 -47 -223 -56 -355 -8 -111 -16 -104 -44 35 -66 331 -80 863
-35 1253 40 336 137 718 267 1048 62 158 198 427 304 604 53 88 94 161 92 163
-4 5 -259 -126 -337 -173 -201 -122 -487 -349 -653 -519 -140 -143 -314 -364
-435 -552 -137 -213 -297 -549 -350 -733 -15 -54 -31 -98 -34 -98 -8 0 -29
317 -30 450 0 135 -6 129 -49 -55 -16 -71 -36 -150 -43 -175 l-14 -45 -8 97
c-12 161 1 995 18 1128 15 114 74 436 103 560 45 197 177 615 267 845 19 50
46 119 60 155 14 36 55 137 92 225 37 88 82 196 100 240 56 134 198 366 419
685 88 126 326 448 388 523 47 55 37 63 -13 11 -111 -116 -327 -267 -640 -447
-231 -133 -501 -232 -914 -336 -132 -33 -250 -63 -262 -67 -13 -3 -23 -4 -23
-2 0 3 44 39 98 80 161 124 324 300 439 473 87 132 118 186 254 445 313 599
417 778 581 997 165 221 325 382 753 757 588 517 723 665 877 957 49 93 188
470 188 509 0 7 -22 -18 -49 -57 -240 -341 -556 -625 -880 -792 -178 -91 -358
-155 -543 -192 -57 -11 -111 -22 -122 -26 -11 -3 -16 -1 -12 5 3 6 30 18 59
28 206 67 461 277 607 499 103 157 200 358 285 590 101 275 188 462 316 676
103 172 184 280 360 484 89 103 284 295 300 295 4 0 13 -8 18 -19z m1775
-2356 c9 -11 31 -40 51 -65 75 -98 233 -217 490 -370 238 -142 298 -184 475
-336 204 -175 400 -427 544 -698 46 -86 120 -275 111 -284 -2 -2 -23 12 -47
31 -147 120 -459 277 -878 443 -118 46 -231 92 -250 100 -19 9 -80 36 -135 60
-197 85 -403 200 -550 307 -109 79 -270 242 -347 351 -69 97 -173 296 -184
356 -6 29 -5 30 17 21 72 -28 271 -128 384 -193 144 -83 228 -119 342 -149 73
-18 163 -26 163 -13 0 3 -22 30 -49 60 -64 70 -95 135 -126 264 -14 58 -32
121 -40 140 -13 30 -13 32 -1 15 8 -11 22 -29 30 -40z m7913 -52 c-8 -15 -27
-68 -42 -118 -36 -120 -57 -159 -116 -213 -27 -25 -49 -49 -49 -54 0 -16 150
2 228 28 88 29 164 66 337 163 107 61 328 171 341 171 19 0 -32 -148 -83 -240
-92 -166 -254 -353 -411 -473 -135 -104 -420 -267 -572 -327 -25 -10 -70 -29
-100 -43 -30 -14 -154 -64 -275 -111 -121 -48 -227 -90 -236 -95 -9 -5 -60
-28 -113 -51 -170 -72 -419 -209 -536 -296 -34 -25 -64 -44 -66 -41 -12 11
129 311 202 431 235 382 498 631 949 896 225 132 369 242 479 363 57 63 72 75
74 58 2 -11 -3 -32 -11 -48z m-7912 -1133 c224 -80 392 -200 530 -380 71 -93
186 -263 180 -268 -2 -3 -20 9 -39 26 -115 101 -351 200 -530 223 -80 10 -211
-2 -230 -21 -4 -4 9 -19 31 -34 50 -33 166 -166 297 -340 264 -349 425 -489
625 -541 65 -16 138 -17 96 -1 -11 4 -42 16 -69 27 -164 64 -425 281 -574 476
-66 87 -202 309 -202 331 0 18 55 7 161 -34 151 -57 256 -117 414 -236 167
-126 201 -156 310 -274 106 -113 201 -196 276 -242 63 -38 239 -103 353 -129
275 -63 451 -209 575 -480 28 -61 51 -117 51 -123 0 -6 -26 7 -57 28 -120 80
-239 112 -419 112 -99 0 -156 -9 -476 -72 -335 -66 -373 -72 -488 -71 -138 0
-204 13 -325 64 -93 39 -143 75 -280 209 -171 165 -233 208 -375 256 -30 10
-59 22 -64 26 -13 10 -66 11 -66 1 0 -5 32 -28 71 -52 95 -60 174 -139 296
-301 121 -161 176 -220 265 -283 69 -50 181 -87 260 -87 21 0 38 -2 38 -4 0
-3 -25 -29 -56 -58 -99 -93 -229 -268 -304 -408 -15 -28 4 -26 32 3 56 56 284
236 398 314 180 122 378 218 533 257 105 27 220 39 377 39 150 0 220 -9 328
-44 37 -12 44 -32 7 -23 -53 13 -137 -55 -210 -171 -91 -145 -239 -297 -515
-530 -215 -182 -292 -256 -379 -365 -65 -80 -109 -150 -95 -150 3 0 50 37 104
81 147 122 338 230 448 254 l32 7 -31 -84 c-86 -232 -104 -284 -145 -412 -68
-217 -143 -566 -168 -791 -53 -459 -40 -991 30 -1252 38 -144 92 -290 132
-360 160 -278 390 -513 776 -793 156 -114 145 -98 147 -222 1 -112 28 -320 53
-423 9 -33 25 -103 36 -155 11 -52 37 -139 56 -192 l36 -97 -30 -38 c-39 -50
-125 -204 -152 -273 -47 -119 -90 -256 -106 -333 -21 -110 -30 -406 -15 -521
7 -48 10 -90 9 -92 -7 -7 -127 222 -171 326 -25 58 -50 132 -57 165 -7 33 -25
101 -40 150 -15 50 -33 133 -40 185 -7 52 -16 99 -21 104 -21 23 -31 -55 -27
-216 3 -164 3 -167 -14 -135 -40 76 -137 389 -168 542 -38 189 -68 467 -58
535 5 34 7 68 4 76 -7 19 -25 18 -33 -3 -9 -25 -98 -156 -115 -171 -13 -10
-16 -3 -21 55 -4 38 -5 142 -3 233 4 181 25 312 71 440 14 41 34 97 42 123 14
41 23 51 55 64 21 8 38 18 38 21 0 2 -53 59 -118 126 -178 184 -332 393 -445
606 -55 102 -135 283 -162 365 -32 97 -84 272 -87 294 -2 14 -8 26 -14 28 -15
5 -91 -96 -162 -215 l-60 -103 -7 43 c-25 168 -39 240 -55 288 -11 30 -33 105
-50 165 -30 108 -86 264 -176 497 -25 65 -52 137 -59 160 -7 24 -25 75 -40
113 -25 67 -60 201 -104 402 -54 244 -45 530 24 722 8 24 13 47 9 50 -10 10
-43 -42 -108 -175 -152 -308 -224 -625 -215 -943 5 -137 2 -137 -63 16 -96
224 -267 481 -427 645 -127 128 -170 130 -253 7 -33 -48 -73 -161 -93 -257 -4
-18 -8 -32 -10 -30 -2 2 -11 84 -20 183 -25 258 -8 562 45 830 28 139 101 376
148 482 22 48 43 99 47 113 4 14 16 45 27 69 11 24 16 47 11 51 -15 15 -164
30 -236 24 -89 -7 -178 -29 -230 -55 -21 -11 -41 -18 -44 -15 -3 3 35 51 84
108 81 93 153 188 153 202 0 6 114 203 203 351 225 373 441 569 698 634 93 23
96 36 34 119 -118 157 -304 241 -502 227 -63 -4 -93 -3 -93 4 0 6 4 11 9 11 5
0 53 43 106 96 105 103 230 201 307 240 198 101 347 116 523 54z m8270 6 c116
-39 176 -70 260 -133 71 -53 296 -255 303 -273 1 -4 -48 -7 -110 -7 -120 0
-201 -19 -298 -68 -65 -34 -148 -111 -192 -179 -44 -68 -40 -81 25 -91 113
-19 278 -111 399 -223 77 -72 189 -212 274 -344 93 -145 204 -333 204 -348 0
-14 93 -142 208 -288 47 -60 75 -102 65 -99 -10 3 -46 17 -79 31 -109 45 -268
56 -386 25 -45 -12 -47 -23 -13 -89 62 -122 166 -429 193 -571 61 -311 82
-476 82 -635 0 -99 -27 -381 -39 -402 -10 -18 -12 -14 -35 91 -36 156 -120
259 -199 241 -82 -18 -352 -346 -457 -554 -18 -36 -40 -76 -50 -90 -9 -14 -37
-78 -61 -144 -24 -65 -46 -111 -48 -101 -2 10 3 36 10 57 10 32 10 65 0 176
-14 145 -52 390 -76 482 -36 139 -154 409 -229 523 -34 52 -55 64 -31 18 42
-81 62 -183 71 -351 6 -136 -7 -327 -32 -448 -22 -108 -108 -403 -143 -492
-65 -166 -133 -353 -227 -621 -28 -79 -112 -438 -116 -494 l-3 -40 -29 55
c-35 67 -152 244 -172 261 -21 17 -26 7 -51 -84 -33 -129 -117 -356 -180 -489
-126 -267 -279 -486 -508 -726 -59 -62 -106 -114 -104 -116 2 -1 18 -8 36 -15
28 -11 37 -24 61 -90 50 -129 76 -246 102 -446 13 -98 8 -334 -8 -375 l-10
-25 -18 33 c-26 46 -114 162 -122 162 -4 0 -7 -75 -8 -168 -1 -146 -5 -185
-32 -317 -56 -263 -62 -288 -106 -420 -24 -71 -58 -176 -76 -233 -33 -104 -49
-131 -31 -51 12 49 14 271 5 343 -10 71 -29 57 -44 -31 -18 -113 -53 -261 -95
-398 -54 -179 -249 -566 -222 -440 15 66 27 275 21 360 -6 96 -38 303 -56 370
-31 114 -183 427 -235 487 -13 15 -13 22 0 60 24 67 105 365 121 448 18 91 35
271 39 399 2 92 3 94 32 116 189 138 379 284 460 355 322 281 503 574 570 924
33 172 65 477 65 621 0 141 -24 435 -56 685 -23 188 -103 553 -153 705 -42
128 -121 346 -150 414 l-30 71 27 -6 c164 -39 386 -173 521 -313 66 -69 63
-34 -5 67 -76 111 -224 259 -449 447 -248 207 -324 281 -427 420 -49 66 -106
143 -127 170 -25 34 -55 59 -95 79 -67 34 -65 36 49 62 60 14 118 19 230 18
218 0 363 -26 537 -95 212 -84 391 -200 712 -463 53 -43 99 -77 101 -74 7 7
-139 233 -197 305 -28 34 -77 85 -109 113 -33 29 -59 55 -59 60 0 4 26 10 58
14 189 21 300 100 483 344 154 203 257 307 346 349 39 18 87 34 105 34 29 2
30 2 6 6 -70 11 -273 -55 -371 -121 -34 -22 -114 -91 -177 -151 -137 -132
-201 -185 -255 -212 -80 -40 -192 -72 -297 -84 -126 -14 -169 -9 -498 57 -377
76 -430 84 -545 85 -61 0 -142 -6 -181 -15 -99 -20 -212 -70 -256 -113 -21
-20 -40 -35 -42 -32 -3 2 4 24 14 49 10 25 29 72 42 105 35 87 111 197 192
276 97 94 206 150 379 194 140 35 232 67 313 108 86 43 228 161 306 254 100
119 343 316 517 417 118 70 371 165 371 141 0 -21 -61 -144 -106 -213 -140
-215 -325 -398 -535 -530 -76 -48 -171 -92 -199 -92 -11 0 -20 -4 -20 -10 0
-25 132 1 215 42 153 76 371 283 521 494 86 123 157 208 236 287 48 49 88 93
88 97 0 5 -16 12 -35 15 -19 3 -51 7 -70 10 -52 8 -183 -12 -289 -45 -120 -37
-238 -97 -360 -184 -47 -33 -40 -9 20 72 33 44 88 119 124 167 82 113 154 182
259 252 122 81 263 141 391 167 53 10 187 -4 255 -28z m-6516 -373 c115 -117
206 -170 374 -219 70 -20 169 -58 220 -83 81 -41 97 -53 131 -103 36 -53 40
-64 40 -125 1 -59 -3 -74 -28 -111 -56 -83 -164 -119 -276 -92 -68 16 -98 44
-237 219 -120 149 -143 191 -233 410 -24 57 -53 120 -66 139 -24 35 -30 52
-18 52 4 0 45 -39 93 -87z m4443 -6 c-21 -39 -56 -116 -75 -169 -45 -121 -80
-186 -133 -248 -22 -26 -58 -72 -79 -101 -72 -100 -138 -170 -179 -191 -63
-33 -186 -32 -246 2 -24 14 -59 44 -77 68 -29 39 -33 51 -33 108 0 76 20 121
77 176 48 47 129 83 313 142 173 54 265 108 385 224 44 42 82 74 83 69 2 -4
-14 -40 -36 -80z m-5162 -89 c6 -220 3 -203 75 -393 11 -31 -61 52 -111 128
-56 84 -116 213 -112 241 3 21 12 23 131 34 9 1 17 -4 17 -10z m5915 2 c66 0
68 -6 35 -94 -16 -43 -50 -112 -75 -154 -51 -83 -121 -170 -130 -161 -3 3 6
26 19 50 40 71 57 148 57 255 1 55 3 103 6 107 3 5 15 6 27 3 11 -3 39 -6 61
-6z m-5714 -55 c19 -13 48 -31 65 -38 93 -43 298 -202 430 -333 92 -92 111
-119 64 -94 -23 12 -43 4 -22 -9 7 -4 12 -14 10 -22 -2 -7 6 -15 19 -17 13 -2
23 3 25 12 2 12 12 7 41 -20 20 -19 37 -41 37 -49 0 -32 -294 -32 -415 0 -33
8 -106 38 -162 66 -112 56 -131 76 -178 189 -20 47 -29 89 -33 152 -5 98 -1
124 29 161 26 33 46 34 90 2z m5529 -27 c19 -45 22 -64 17 -128 -8 -98 -40
-199 -80 -252 -24 -32 -57 -56 -130 -94 -144 -74 -210 -89 -397 -89 -85 0
-163 3 -173 7 -23 10 -19 16 98 144 94 101 247 237 353 314 85 61 242 149 268
149 17 1 27 -11 44 -51z m-4806 -704 c65 -8 90 -28 130 -104 21 -39 36 -73 34
-75 -16 -16 -215 94 -285 158 -43 39 -32 41 121 21z m4119 1 c-22 -38 -261
-185 -302 -185 -15 0 65 144 90 162 14 10 57 21 99 26 117 14 122 14 113 -3z
m-3030 -76 c132 -37 305 -143 438 -271 64 -61 143 -159 219 -272 67 -98 195
-349 211 -410 6 -26 17 -45 23 -43 6 2 47 75 91 163 201 399 389 621 648 763
190 105 402 127 524 56 46 -28 111 -103 145 -168 41 -81 106 -265 126 -360 12
-53 31 -139 42 -190 28 -127 39 -225 40 -339 0 -54 4 -98 9 -98 5 0 16 11 25
25 35 54 141 83 230 62 59 -13 60 -13 40 -33 -67 -69 -237 -292 -379 -497 -33
-48 -111 -160 -174 -250 -217 -308 -248 -370 -264 -527 -8 -84 -7 -120 5 -177
15 -76 12 -85 -16 -54 -25 27 -129 77 -226 108 -78 25 -98 27 -250 27 -126 -1
-198 -6 -305 -24 -175 -30 -400 -33 -550 -8 -55 9 -120 19 -145 22 -25 3 -67
9 -95 12 -199 26 -436 -26 -579 -126 -66 -46 -74 -49 -53 -16 26 39 37 137 27
230 -11 95 -37 176 -81 255 -57 101 -547 803 -623 892 -17 19 -40 46 -51 60
-11 13 -32 39 -47 57 -16 19 -28 38 -28 43 0 5 46 8 103 6 90 -2 106 -5 137
-27 19 -13 43 -35 53 -47 27 -33 34 -22 29 41 -6 75 15 298 39 421 21 105 61
249 104 375 45 131 147 280 218 316 72 38 209 39 340 3z m-8608 -1039 c-28
-12 -55 -12 -55 0 0 6 17 10 38 9 30 0 33 -2 17 -9z m7446 -246 c46 -23 86
-62 187 -182 273 -324 443 -564 542 -762 61 -122 70 -155 70 -268 0 -101 -3
-109 -140 -397 -21 -44 -48 -116 -60 -160 -25 -94 -58 -170 -59 -140 -3 36
-60 85 -100 85 -10 0 -21 7 -25 15 -8 22 -24 18 -29 -7 -3 -16 -5 -13 -6 10
-1 29 -4 33 -23 27 -17 -6 -20 -4 -15 9 5 11 3 15 -5 10 -7 -5 -9 0 -6 14 4
12 2 20 -2 17 -5 -3 -16 5 -24 17 -25 36 -19 9 9 -39 14 -23 30 -43 35 -43 6
0 10 -7 10 -15 0 -26 22 -64 35 -59 7 3 15 -2 19 -12 4 -12 2 -15 -9 -11 -12
5 -12 1 2 -28 9 -19 20 -35 25 -35 4 0 17 -18 28 -40 11 -22 25 -40 31 -40 7
0 9 -11 5 -27 -5 -24 -4 -26 6 -12 11 13 13 -23 12 -195 0 -116 -4 -212 -7
-213 -4 -2 -35 -3 -70 -3 -55 0 -71 5 -122 35 -32 20 -70 38 -84 42 l-26 6 20
-23 c11 -12 36 -33 55 -46 19 -13 67 -46 105 -73 39 -28 93 -61 121 -75 44
-21 54 -32 68 -68 8 -24 24 -66 34 -94 30 -81 109 -206 186 -293 107 -122 192
-185 344 -257 72 -35 132 -66 131 -71 -1 -17 -125 -113 -184 -143 -122 -62
-207 -63 -404 -4 -45 14 -86 23 -89 20 -8 -9 236 -122 306 -141 141 -39 303
13 482 155 26 21 44 28 53 23 8 -4 48 -49 89 -98 147 -177 250 -246 451 -300
71 -19 75 -25 59 -83 -11 -37 -132 -151 -207 -195 -105 -62 -170 -85 -306
-108 -150 -26 -191 -26 -373 1 -198 30 -368 81 -606 182 -623 264 -993 668
-1135 1238 -61 243 -76 331 -83 470 -11 206 -6 591 7 725 14 133 101 582 132
678 11 34 35 112 54 174 60 195 223 578 274 643 15 19 42 58 61 85 71 107 83
114 151 79z m4262 -62 c36 -49 82 -117 102 -151 92 -156 259 -597 310 -816 14
-61 36 -153 50 -205 71 -279 99 -768 68 -1175 -17 -221 -35 -326 -84 -495 -99
-347 -262 -605 -523 -829 -210 -180 -496 -334 -844 -452 -159 -54 -278 -81
-454 -102 -107 -13 -126 -13 -240 4 -67 11 -152 29 -186 40 -150 50 -312 169
-372 274 -16 29 -30 55 -30 59 0 3 11 6 24 6 13 0 58 11 100 25 184 60 283
125 396 261 36 43 79 93 96 111 l32 33 34 -33 c49 -45 188 -127 255 -149 71
-24 149 -34 165 -21 7 6 44 16 81 22 38 7 88 19 110 28 58 23 203 106 191 110
-6 2 -57 -13 -114 -33 -118 -41 -215 -53 -285 -35 -82 21 -171 70 -236 130
l-64 59 136 66 c75 36 158 81 185 102 146 109 277 273 343 429 61 145 73 165
101 180 15 8 89 55 165 106 146 98 240 178 217 186 -7 3 -23 -4 -35 -15 -30
-26 -176 -118 -207 -130 -14 -6 -52 -12 -85 -13 l-59 -4 3 185 c3 181 3 185
30 225 44 65 83 153 75 166 -4 7 -3 9 3 6 14 -9 24 16 14 32 -10 16 -2 61 11
61 5 0 7 4 4 8 -18 30 -156 -40 -156 -79 0 -10 -4 -19 -9 -19 -9 0 -22 34 -66
170 -15 47 -52 137 -82 200 -128 266 -136 339 -64 532 63 169 354 579 624 880
80 89 154 148 187 148 9 0 46 -40 83 -88z m2815 -944 c21 -21 15 -40 -10 -32
-30 9 -32 10 -25 29 8 18 19 19 35 3z m-5277 -467 c113 -28 228 -51 256 -51
27 0 114 16 193 35 237 59 362 62 466 14 102 -49 213 -211 238 -351 6 -35 5
-38 -17 -38 -14 0 -30 7 -37 15 -7 8 -16 15 -21 15 -4 0 -47 27 -96 59 -117
79 -175 101 -267 101 -80 0 -129 -14 -271 -78 -169 -77 -281 -79 -515 -13
-166 48 -275 60 -347 41 -98 -27 -191 -86 -299 -190 -35 -33 -68 -59 -73 -56
-15 10 27 159 70 245 31 63 58 100 110 150 72 70 122 100 229 138 87 30 128
26 381 -36z m1886 -1057 c-16 -9 -31 -13 -34 -10 -3 3 5 10 18 15 37 15 47 12
16 -5z m-2984 -1785 c129 -36 246 -74 278 -90 44 -22 50 -51 38 -176 -7 -64
-23 -120 -69 -242 -78 -206 -128 -311 -148 -311 -8 0 -35 20 -58 45 -105 109
-224 465 -240 714 l-5 84 81 -6 c44 -4 100 -12 123 -18z m2913 -66 c-11 -150
-37 -284 -73 -383 -19 -52 -41 -116 -49 -141 -16 -51 -74 -145 -127 -203 -37
-41 -61 -43 -74 -9 -3 10 -30 76 -60 146 -83 196 -133 377 -133 479 0 48 4 59
25 76 51 40 338 121 434 121 l64 1 -7 -87z m-2432 -514 c34 -16 54 -63 71
-167 25 -155 88 -312 165 -412 39 -52 42 -58 37 -107 -17 -172 -170 -294 -301
-239 -115 48 -182 185 -193 392 -7 131 4 199 52 349 56 171 97 216 169 184z
m1848 -16 c23 -20 103 -213 119 -288 19 -86 16 -304 -5 -385 -22 -85 -80 -177
-135 -214 -114 -76 -247 -23 -317 128 -13 28 -24 57 -24 64 0 7 -5 23 -11 35
-11 20 -13 18 -34 -29 -18 -40 -32 -56 -70 -77 -59 -34 -85 -34 -115 -2 -30
32 -44 31 -68 -2 -17 -24 -27 -28 -66 -27 -36 1 -51 7 -70 27 -30 32 -34 32
-66 7 -34 -26 -49 -25 -83 7 l-28 28 -17 -21 c-28 -36 -56 -38 -92 -7 -32 26
-33 26 -47 7 -8 -10 -18 -25 -22 -33 -5 -9 -27 -14 -56 -15 -42 -1 -50 3 -76
34 l-29 34 -34 -33 c-33 -32 -35 -32 -77 -21 -53 14 -104 65 -120 120 -11 36
-9 43 23 102 20 34 41 80 47 101 15 46 33 47 59 3 21 -35 100 -96 124 -96 8 0
24 11 36 25 33 38 66 48 105 31 18 -7 38 -20 46 -29 19 -23 47 -21 65 5 22 32
107 27 149 -8 l30 -26 29 31 c24 25 37 31 72 31 34 0 48 -6 71 -30 16 -16 36
-30 44 -30 24 1 90 54 118 95 27 40 39 44 48 14 4 -12 22 -47 40 -78 19 -32
37 -69 41 -84 3 -16 10 -27 15 -25 19 7 93 119 135 203 42 85 84 239 84 313 0
15 9 46 20 70 30 66 95 86 142 45z m-2309 -424 l37 -10 0 -81 c0 -82 26 -201
57 -262 25 -48 112 -134 195 -192 274 -193 646 -273 979 -210 56 11 81 11 146
0 43 -8 132 -17 198 -20 104 -5 139 -2 260 20 168 32 209 45 341 106 304 142
448 331 431 567 l-5 72 56 11 c31 6 66 13 77 15 46 10 48 -5 15 -131 -55 -207
-179 -406 -331 -534 -84 -69 -253 -154 -361 -180 -134 -32 -291 -42 -667 -40
-218 0 -358 -3 -365 -9 -7 -6 -26 -7 -51 -1 -22 5 -68 10 -102 10 -93 0 -289
27 -367 51 -195 58 -363 180 -488 354 -103 144 -218 450 -177 475 13 9 59 4
122 -11z m-327 -47 c10 -51 107 -298 161 -407 110 -220 265 -404 433 -514 92
-60 155 -86 312 -128 98 -27 114 -28 323 -28 150 0 244 5 295 15 99 19 190 18
330 -4 91 -14 153 -17 300 -13 177 4 190 6 310 41 148 44 207 70 292 127 193
131 346 330 465 609 70 164 81 194 102 272 11 46 24 73 32 73 22 0 137 -295
160 -410 22 -108 19 -458 -4 -554 -58 -239 -185 -464 -383 -676 l-55 -60 6 35
c14 75 31 140 57 213 12 31 19 60 16 62 -10 10 -38 -7 -38 -23 0 -16 -339
-355 -481 -481 -248 -219 -241 -215 -154 -81 23 36 57 92 76 125 18 33 48 81
66 107 64 92 36 79 -110 -49 -279 -247 -445 -425 -648 -698 -57 -77 -114 -154
-126 -170 -13 -17 -32 -47 -43 -67 -11 -21 -25 -38 -30 -38 -5 0 -17 15 -26
33 -9 17 -53 84 -97 147 -140 200 -255 337 -457 544 -128 132 -387 362 -396
353 -5 -5 46 -89 191 -319 73 -116 76 -118 -189 121 -39 35 -171 163 -293 284
-123 120 -223 215 -223 211 0 -5 21 -67 46 -139 60 -171 58 -165 46 -165 -15
0 -135 132 -207 228 -116 154 -210 374 -251 580 -18 95 -18 319 0 414 38 193
148 490 176 473 5 -3 12 -22 16 -43z m-11122 -2458 c103 -20 190 -53 295 -114
88 -50 201 -134 201 -148 0 -5 -30 -46 -67 -93 -38 -46 -78 -97 -89 -113 l-21
-30 -54 46 c-30 25 -88 66 -129 91 -194 117 -408 129 -605 32 -116 -57 -191
-117 -259 -207 -123 -165 -177 -319 -178 -508 -1 -142 17 -223 76 -345 103
-210 248 -341 451 -406 93 -30 270 -32 360 -5 115 34 214 94 306 186 l87 86
108 -101 108 -102 -28 -34 c-62 -74 -242 -210 -336 -252 -210 -95 -423 -120
-632 -72 -532 120 -895 668 -803 1210 103 601 636 988 1209 879z m20296 -13
c402 -118 711 -477 761 -886 15 -121 5 -316 -22 -419 -27 -104 -113 -283 -177
-366 -373 -490 -1026 -571 -1487 -183 -100 84 -195 207 -260 337 -120 241
-149 479 -90 726 95 394 407 712 789 800 116 28 377 22 486 -9z m-17660 3 c0
-3 -154 -237 -343 -522 -188 -284 -353 -533 -365 -553 -22 -36 -22 -39 -22
-512 0 -262 -3 -478 -8 -481 -6 -4 -246 -10 -294 -7 -17 1 -18 31 -18 490 l0
490 -242 363 c-134 200 -285 428 -337 508 -52 80 -107 161 -123 181 -15 20
-28 40 -28 43 0 3 83 6 183 6 163 0 186 -2 199 -17 9 -10 124 -181 257 -380
133 -199 245 -364 249 -367 5 -3 124 168 266 379 l257 385 172 2 c163 3 197 1
197 -8z m1270 -5 c95 -15 184 -63 260 -139 109 -108 160 -232 160 -385 -1
-159 -48 -293 -134 -379 -27 -28 -44 -52 -39 -53 25 -9 131 -77 156 -101 50
-48 106 -142 134 -225 34 -107 39 -289 9 -377 -58 -174 -200 -322 -364 -382
-53 -20 -89 -22 -557 -30 -275 -5 -510 -6 -522 -3 l-23 5 0 1040 0 1040 428 0
c251 0 454 -4 492 -11z m2290 -118 c0 -93 -4 -132 -12 -138 -7 -4 -224 -8
-483 -8 l-470 -2 -3 -291 -2 -292 432 -2 431 -3 -2 -130 c-1 -71 -5 -133 -7
-137 -3 -4 -196 -8 -430 -8 l-424 0 0 -330 0 -330 483 -2 482 -3 0 -135 0
-135 -629 -7 c-460 -6 -633 -5 -642 3 -12 10 -14 188 -14 1039 0 564 3 1030 7
1033 3 4 294 7 645 7 l638 0 0 -129z m1534 100 c213 -85 350 -243 393 -456 37
-186 -29 -392 -171 -529 -66 -64 -128 -103 -193 -122 -29 -9 -53 -17 -53 -20
0 -2 155 -210 345 -460 190 -251 345 -458 343 -459 -7 -7 -320 -17 -350 -11
-39 7 -60 34 -435 551 -111 154 -218 297 -236 318 l-34 37 -169 -2 -169 -3 -3
-447 -2 -446 -148 -4 c-81 -2 -153 -2 -159 0 -10 3 -13 221 -13 1044 l0 1039
498 -3 c496 -3 497 -4 556 -27z m14066 -871 l0 -900 483 -2 482 -3 3 -137 3
-138 -408 -1 c-224 0 -507 -2 -628 -5 -121 -2 -225 -1 -232 3 -8 6 -12 272
-13 1033 -1 564 -2 1031 -1 1038 1 9 39 12 156 12 l155 0 0 -900z m2750 771
c0 -72 -4 -132 -9 -135 -5 -3 -249 -8 -542 -11 -294 -2 -537 -5 -541 -5 -5 0
-8 -130 -8 -290 l0 -290 500 0 501 0 -3 -137 -3 -138 -497 -3 -498 -2 0 -469
0 -468 -142 -5 c-79 -3 -151 -3 -160 0 -17 4 -18 62 -18 1036 0 568 3 1036 7
1039 3 4 323 7 710 7 l703 0 0 -129z"/>
<path d="M24535 32800 c-3 -5 -1 -10 4 -10 6 0 11 5 11 10 0 6 -2 10 -4 10 -3
0 -8 -4 -11 -10z"/>
<path d="M24445 32700 c-32 -37 -61 -74 -64 -82 -2 -7 6 -2 18 12 19 21 22 22
17 5 -4 -15 1 -12 19 10 33 40 86 125 77 124 -4 0 -34 -31 -67 -69z m-9 -38
c-17 -16 -18 -16 -5 5 7 12 15 20 18 17 3 -2 -3 -12 -13 -22z"/>
<path d="M24334 32558 l-19 -23 23 19 c12 11 22 21 22 23 0 8 -8 2 -26 -19z"/>
<path d="M26200 29455 c0 -5 5 -17 10 -25 5 -8 10 -10 10 -5 0 6 -5 17 -10 25
-5 8 -10 11 -10 5z"/>
<path d="M14605 26375 c-49 -13 -103 -28 -120 -35 -16 -6 -60 -18 -98 -26
-178 -37 -302 -98 -469 -231 -125 -100 -177 -152 -258 -258 -121 -159 -204
-338 -266 -575 -45 -171 -44 -451 2 -635 37 -146 87 -283 128 -350 24 -38 54
-91 66 -117 22 -48 46 -75 56 -65 3 3 -5 40 -17 84 -60 204 -5 651 122 991
136 363 307 630 574 897 97 97 286 247 373 295 46 26 56 50 20 49 -13 0 -63
-11 -113 -24z"/>
<path d="M25380 26389 c0 -8 26 -30 58 -49 258 -156 535 -434 714 -717 165
-263 301 -640 344 -953 26 -198 17 -424 -22 -524 -5 -13 -3 -17 6 -14 22 7
138 225 185 345 52 133 71 218 87 389 21 226 -13 477 -89 657 -31 71 -90 185
-108 207 -6 8 -24 36 -39 62 -37 66 -106 147 -212 250 -103 100 -168 151 -275
214 -155 90 -273 124 -454 129 -60 1 -129 6 -152 10 -34 6 -43 5 -43 -6z"/>
<path d="M24458 25163 c6 -2 18 -2 25 0 6 3 1 5 -13 5 -14 0 -19 -2 -12 -5z"/>
<path d="M25207 24959 c7 -7 15 -10 18 -7 3 3 -2 9 -12 12 -14 6 -15 5 -6 -5z"/>
<path d="M22790 26061 c0 -5 5 -13 10 -16 6 -3 10 -2 10 4 0 5 -4 13 -10 16
-5 3 -10 2 -10 -4z"/>
<path d="M19557 22969 c-84 -12 -214 -49 -227 -64 -8 -9 2 -9 42 2 196 51 497
36 627 -33 l63 -33 67 34 c36 19 86 38 111 44 69 16 413 13 485 -3 33 -8 61
-13 63 -11 11 11 -73 38 -174 55 -139 24 -245 25 -418 5 -126 -15 -195 -14
-321 6 -72 11 -237 10 -318 -2z"/>
<path d="M17990 22896 c0 -8 4 -17 9 -20 5 -4 7 3 4 14 -6 23 -13 26 -13 6z"/>
<path d="M17777 22245 c3 -27 10 -57 14 -65 10 -17 1 48 -12 90 -5 16 -6 6 -2
-25z"/>
<path d="M18185 21610 c3 -5 8 -10 11 -10 2 0 4 5 4 10 0 6 -5 10 -11 10 -5 0
-7 -4 -4 -10z"/>
<path d="M17341 21594 c0 -11 3 -14 6 -6 3 7 2 16 -1 19 -3 4 -6 -2 -5 -13z"/>
<path d="M18425 20170 c3 -5 29 -24 58 -43 160 -101 297 -145 482 -153 140 -7
233 11 357 69 73 34 164 94 155 103 -2 2 -28 -6 -58 -20 -129 -56 -198 -72
-329 -74 -111 -3 -278 9 -335 22 -11 2 -40 9 -65 15 -52 12 -133 40 -203 70
-53 23 -71 26 -62 11z"/>
<path d="M22341 22244 c0 -11 3 -14 6 -6 3 7 2 16 -1 19 -3 4 -6 -2 -5 -13z"/>
<path d="M21735 22140 c3 -5 8 -10 11 -10 2 0 4 5 4 10 0 6 -5 10 -11 10 -5 0
-7 -4 -4 -10z"/>
<path d="M21630 20154 c-90 -39 -253 -86 -337 -96 -142 -18 -408 4 -526 44
-49 16 -91 27 -94 24 -7 -7 71 -54 137 -84 104 -46 180 -63 312 -69 141 -6
211 3 318 45 106 42 229 116 230 140 0 14 3 15 -40 -4z"/>
<path d="M27220 15881 c-176 -19 -348 -120 -461 -269 -113 -150 -169 -311
-170 -492 -2 -355 231 -671 556 -755 77 -20 243 -20 320 0 318 81 534 361 552
712 24 478 -347 852 -797 804z"/>
<path d="M10580 15882 c-6 -2 -10 -110 -10 -294 l0 -290 283 4 282 3 58 28
c173 85 205 338 62 479 -64 63 -87 67 -393 70 -149 2 -277 2 -282 0z"/>
<path d="M10570 14689 l0 -330 333 3 332 3 54 30 c59 33 100 77 134 145 18 38
22 62 22 150 0 95 -3 110 -27 155 -35 66 -90 118 -158 149 l-55 26 -317 0
-318 0 0 -331z"/>
<path d="M14270 15576 l0 -317 303 3 c296 3 303 3 351 27 140 69 204 218 161
376 -21 79 -82 153 -159 193 l-51 26 -302 4 -303 4 0 -316z"/>
</g>
</svg>
